<svg  viewBox="95 192 330 98" fill="none" xmlns="http://www.w3.org/2000/svg">
<path d="M314.716 240.77H308.799C308.325 240.77 307.992 240.869 307.799 241.062C307.601 241.26 307.507 241.572 307.507 241.999V244.832H313.841V247.499H307.507V254.457H303.82V241.249C303.82 240.197 304.153 239.364 304.82 238.749C305.487 238.14 306.367 237.832 307.466 237.832C310.992 237.832 313.476 237.916 314.924 238.082L314.716 240.77Z" fill="white"/>
<path d="M331.345 250.103H325.657L324.47 254.457H320.72L325.491 238.853C325.558 238.562 325.709 238.332 325.949 238.166C326.199 237.989 326.47 237.895 326.761 237.895H330.22C330.912 237.895 331.334 238.218 331.491 238.853L336.282 254.457H332.553L331.345 250.103ZM330.553 247.291L329.178 242.207C328.98 241.416 328.871 240.905 328.845 240.666H328.178C328.147 240.822 328.095 241.077 328.011 241.437C327.938 241.786 327.876 242.041 327.824 242.207L326.428 247.291H330.553Z" fill="white"/>
<path d="M346.778 237.895V250.249C346.778 250.697 346.872 251.015 347.069 251.207C347.278 251.39 347.616 251.478 348.09 251.478H353.778L353.944 254.27C352.319 254.437 349.976 254.52 346.924 254.52C345.642 254.52 344.694 254.202 344.069 253.562C343.444 252.926 343.132 252.072 343.132 250.999V237.895H346.778Z" fill="white"/>
<path d="M372.566 251.353L372.879 254.082C371.431 254.525 369.66 254.749 367.566 254.749C365.009 254.749 363.212 254.114 362.17 252.832C361.129 251.556 360.608 249.343 360.608 246.187C360.608 243.036 361.129 240.822 362.17 239.541C363.212 238.249 365.009 237.603 367.566 237.603C369.426 237.603 371.087 237.791 372.545 238.166L372.233 240.895C370.926 240.812 369.368 240.77 367.566 240.77C366.368 240.77 365.551 241.155 365.108 241.916C364.66 242.681 364.441 244.103 364.441 246.187C364.441 248.26 364.66 249.676 365.108 250.437C365.551 251.202 366.368 251.582 367.566 251.582C369.785 251.582 371.452 251.51 372.566 251.353Z" fill="white"/>
<path d="M381.422 239.416C382.463 238.197 384.307 237.582 386.963 237.582C389.614 237.582 391.463 238.197 392.505 239.416C393.547 240.64 394.067 242.895 394.067 246.187C394.067 249.468 393.547 251.718 392.505 252.937C391.463 254.161 389.614 254.77 386.963 254.77C384.307 254.77 382.463 254.161 381.422 252.937C380.39 251.718 379.88 249.468 379.88 246.187C379.88 242.895 380.39 240.64 381.422 239.416ZM389.526 241.728C389.067 240.937 388.213 240.541 386.963 240.541C385.713 240.541 384.859 240.937 384.401 241.728C383.942 242.51 383.713 243.994 383.713 246.187C383.713 248.369 383.942 249.853 384.401 250.645C384.859 251.426 385.713 251.812 386.963 251.812C388.213 251.812 389.067 251.426 389.526 250.645C389.984 249.853 390.213 248.369 390.213 246.187C390.213 243.994 389.984 242.51 389.526 241.728Z" fill="white"/>
<path d="M416.025 237.895V253.145C416.025 254.02 415.592 254.457 414.733 254.457H412.441C412.077 254.457 411.795 254.374 411.587 254.207C411.379 254.041 411.176 253.765 410.983 253.374L406.65 244.541C406.108 243.374 405.764 242.52 405.629 241.978H405.379C405.488 242.786 405.545 243.666 405.545 244.624V254.457H402.066V239.207C402.066 238.332 402.504 237.895 403.379 237.895H405.608C405.983 237.895 406.275 237.978 406.483 238.145C406.691 238.312 406.884 238.593 407.066 238.978L411.275 247.541C411.676 248.348 412.077 249.239 412.483 250.207H412.712C412.613 248.957 412.566 248.03 412.566 247.416V237.895H416.025Z" fill="white"/>
<path d="M117.711 251.353L118.024 254.082C116.576 254.525 114.805 254.749 112.711 254.749C110.154 254.749 108.357 254.114 107.315 252.832C106.274 251.556 105.753 249.343 105.753 246.187C105.753 243.036 106.274 240.822 107.315 239.541C108.357 238.249 110.154 237.603 112.711 237.603C114.571 237.603 116.232 237.791 117.69 238.166L117.378 240.895C116.071 240.812 114.513 240.77 112.711 240.77C111.513 240.77 110.696 241.155 110.253 241.916C109.805 242.681 109.586 244.103 109.586 246.187C109.586 248.26 109.805 249.676 110.253 250.437C110.696 251.202 111.513 251.582 112.711 251.582C114.93 251.582 116.597 251.51 117.711 251.353Z" fill="white"/>
<path d="M133.046 248.978V254.457H129.379V248.978L123.9 237.895H127.712L130.483 243.978C130.634 244.327 130.842 245.02 131.108 246.062H131.337C131.53 245.202 131.733 244.51 131.941 243.978L134.691 237.895H138.462L133.046 248.978Z" fill="white"/>
<path d="M154.554 245.812V245.916C155.773 246.03 156.648 246.452 157.179 247.187C157.705 247.911 157.971 248.957 157.971 250.332C157.971 251.999 157.543 253.14 156.7 253.749C155.851 254.348 154.408 254.645 152.366 254.645C149.293 254.645 146.971 254.582 145.387 254.457V237.895C146.804 237.77 148.872 237.707 151.596 237.707C153.804 237.707 155.33 238.01 156.179 238.603C157.023 239.202 157.45 240.343 157.45 242.02C157.45 243.228 157.221 244.14 156.762 244.749C156.304 245.364 155.564 245.718 154.554 245.812ZM148.95 244.666H151.616C152.517 244.666 153.127 244.53 153.45 244.249C153.783 243.957 153.95 243.385 153.95 242.52C153.95 241.702 153.767 241.155 153.408 240.874C153.059 240.598 152.398 240.457 151.429 240.457L148.95 240.437V244.666ZM148.95 251.895H151.741C152.741 251.895 153.413 251.749 153.762 251.457C154.122 251.155 154.304 250.541 154.304 249.624C154.304 248.64 154.116 247.973 153.741 247.624C153.377 247.28 152.679 247.098 151.637 247.082H148.95V251.895Z" fill="white"/>
<path d="M176.883 251.603L177.05 254.291C175.55 254.447 172.993 254.52 169.383 254.52C168.269 254.52 167.388 254.223 166.737 253.624C166.081 253.03 165.748 252.218 165.737 251.187V241.166C165.748 240.14 166.081 239.327 166.737 238.728C167.388 238.135 168.269 237.832 169.383 237.832C172.993 237.832 175.55 237.911 177.05 238.062L176.883 240.77H170.529C170.123 240.77 169.831 240.869 169.654 241.062C169.487 241.26 169.404 241.572 169.404 241.999V244.52H176.008V247.166H169.404V250.353C169.404 250.801 169.487 251.119 169.654 251.312C169.831 251.51 170.123 251.603 170.529 251.603H176.883Z" fill="white"/>
<path d="M197.957 254.457H194.103L192.853 249.395C192.686 248.869 192.467 248.51 192.207 248.312C191.941 248.103 191.566 247.999 191.082 247.999L188.498 247.978V254.457H184.915V237.895C186.4 237.76 188.504 237.687 191.228 237.687C193.446 237.687 195.019 238.041 195.936 238.749C196.863 239.447 197.332 240.723 197.332 242.582C197.332 243.791 197.087 244.744 196.603 245.437C196.113 246.119 195.301 246.536 194.165 246.687V246.812C195.426 247.093 196.212 247.916 196.519 249.291L197.957 254.457ZM188.498 245.166H191.144C192.103 245.166 192.754 245.01 193.103 244.687C193.462 244.353 193.644 243.739 193.644 242.832C193.644 241.916 193.467 241.301 193.123 240.978C192.775 240.661 192.113 240.499 191.144 240.499L188.498 240.52V245.166Z" fill="white"/>
<path d="M245.219 208.292C247.234 208.328 249.266 208.328 251.302 208.313C260 209.307 268.604 211.453 276.661 214.901C277.078 215.016 277.38 215.203 277.583 215.484C277.719 215.693 277.849 215.974 277.964 216.313C278.375 217.573 278.583 219.573 278.677 221.568C278.734 222.771 278.75 223.974 278.75 224.995V225.031C278.75 226.667 278.698 227.854 278.698 227.854C281.536 229.964 284.328 232.167 286.922 234.594C287 233.974 287.057 233.354 287.115 232.75C287.526 227.969 287.396 223.635 287.13 220.344C286.979 218.401 286.771 216.823 286.604 215.75C286.568 215.484 286.526 215.24 286.49 215.031C286.432 214.656 286.38 214.391 286.359 214.24C286.339 214.146 286.339 214.109 286.339 214.109C285.833 211.625 284.854 209.365 282.536 208.083C281.521 207.635 280.521 207.146 279.526 206.656C265.984 201.38 251.109 197.901 236.63 200.781C238.047 204.245 241.078 208.818 245.219 208.292Z" fill="#EC1C24"/>
<path d="M226.859 208.313C227.089 206.484 227.823 204.792 228.385 203.057C223.979 203.734 219.76 205.563 215.771 207.521C218.781 209.797 222.51 211.172 226.161 212C226.464 210.797 226.615 209.536 226.859 208.313Z" fill="#EC1C24"/>
<mask id="mask0_11_116" style="mask-type:luminance" maskUnits="userSpaceOnUse" x="202" y="197" width="96" height="73">
<path d="M202.667 197.891H297.333V269.333H202.667V197.891Z" fill="white"/>
</mask>
<g mask="url(#mask0_11_116)">
<path d="M295.547 253.125C293.87 250.13 291.292 247.568 288.505 245.646C287.151 244.818 287.151 243.068 286.661 241.714C283.458 233.938 275.229 229.776 268.208 225.953C263.406 223.484 258.359 221.531 253.505 219.193C245.594 215.146 237.213 210.38 233.036 202.172C226.615 210.797 231.927 216.391 232.359 216.839C218.047 214.677 211.271 208.839 208.088 204.208C205.677 200.724 205.318 197.938 205.318 197.938C205.318 197.938 205.318 197.953 205.302 197.953C205.057 198.687 198.672 218.026 207.052 235.047C207.073 235.068 207.073 235.068 207.073 235.083C208.052 237.062 209.219 239 210.609 240.885C210.63 240.901 210.63 240.922 210.651 240.922C213.453 244.667 217.161 248.151 222.057 251.146C222.87 251.578 223.677 251.974 224.526 252.312C226.542 253.385 228.703 254.161 230.891 254.781L231.396 254.818C236.875 256.51 242.599 257.604 248.344 257.698C249.25 257.776 250.13 257.828 251.036 257.906C252.844 257.828 254.651 257.812 256.458 257.792C260.057 257.776 263.651 257.813 267.25 257.964C269.167 257.849 271.068 257.776 272.99 257.698C274.984 257.682 276.984 258.375 278.49 259.641C279.656 260.469 283.479 263.745 278.62 268.13C278.62 268.13 278.641 268.151 278.698 268.151C279.297 268.297 279.901 268.432 280.505 268.583C280.521 268.583 280.521 268.599 280.521 268.599C282.63 268.995 286.187 269.375 289.729 268.26C296.036 266.266 298.766 258.865 295.547 253.125ZM270.24 238.229C268.641 236.177 266.062 235.292 264.177 233.542C267.286 233.844 270.13 235.349 272.88 236.688C275.927 238.646 279.224 240.547 281.24 243.693C276.193 244.818 273.349 241.26 270.24 238.229Z" fill="#EC1C24"/>
</g>
<mask id="mask1_11_116" style="mask-type:luminance" maskUnits="userSpaceOnUse" x="210" y="248" width="69" height="35">
<path d="M210.667 248H278.667V282.891H210.667V248Z" fill="white"/>
</mask>
<g mask="url(#mask1_11_116)">
<path d="M274.495 261.578C272.427 261.391 269.943 260.448 268.021 261.594C262.708 266.885 256.344 271.385 249.172 273.703C240.495 272.365 232.792 266.286 227.255 259.693C226.615 258.958 226.406 258.828 226.052 258.396C216.26 255.005 212.401 249.583 211.438 248.172V248.193C211.458 248.245 211.552 248.531 211.703 248.979C211.76 249.151 211.818 249.339 211.911 249.547C212.135 250.167 212.438 250.995 212.812 251.917C212.948 252.24 213.094 252.594 213.245 252.953C213.849 254.385 214.604 256.005 215.49 257.682C216.276 259.167 217.182 260.672 218.182 262.104C218.255 262.219 218.349 262.349 218.427 262.464C224.865 271.651 234.484 278.333 245.01 282.193C247.422 283.286 250.115 282.854 252.484 281.839C262.203 278.411 270.901 272.12 277.188 263.969C278 262.234 275.625 261.99 274.495 261.578Z" fill="#EC1C24"/>
</g>
</svg>
